<?xml version="1.0" encoding="UTF-8"?>
<!DOCTYPE svg PUBLIC "-//W3C//DTD SVG 1.1//EN" "http://www.w3.org/Graphics/SVG/1.1/DTD/svg11.dtd">
<svg xmlns="http://www.w3.org/2000/svg" version="1.1" width="500px" height="198px" style="shape-rendering:geometricPrecision; text-rendering:geometricPrecision; image-rendering:optimizeQuality; fill-rule:evenodd; clip-rule:evenodd" xmlns:xlink="http://www.w3.org/1999/xlink">
<g><path style="opacity:0.365" fill="#4badb5" d="M 227.5,-0.5 C 240.167,-0.5 252.833,-0.5 265.5,-0.5C 281.792,1.49025 297.459,5.82358 312.5,12.5C 268.663,12.832 224.997,12.4987 181.5,11.5C 196.437,5.60017 211.77,1.60017 227.5,-0.5 Z"/></g>
<g><path style="opacity:0.377" fill="#48aab4" d="M 181.5,11.5 C 224.997,12.4987 268.663,12.832 312.5,12.5C 315.912,13.0749 318.912,14.4082 321.5,16.5C 271.402,17.8302 221.402,17.8302 171.5,16.5C 174.52,14.3233 177.853,12.6566 181.5,11.5 Z"/></g>
<g><path style="opacity:0.404" fill="#46a7b1" d="M 171.5,16.5 C 221.402,17.8302 271.402,17.8302 321.5,16.5C 326.667,18.9157 331.667,21.5824 336.5,24.5C 276.664,24.8324 216.998,24.4991 157.5,23.5C 161.883,20.6417 166.55,18.3084 171.5,16.5 Z"/></g>
<g><path style="opacity:0.423" fill="#43a4ae" d="M 157.5,23.5 C 216.998,24.4991 276.664,24.8324 336.5,24.5C 340.881,26.6837 344.881,29.3504 348.5,32.5C 280.5,32.5 212.5,32.5 144.5,32.5C 148.535,29.1427 152.868,26.1427 157.5,23.5 Z"/></g>
<g><path style="opacity:0.451" fill="#40a0ab" d="M 144.5,32.5 C 212.5,32.5 280.5,32.5 348.5,32.5C 352.221,34.3535 355.554,36.6869 358.5,39.5C 283.833,40.8333 209.167,40.8333 134.5,39.5C 137.475,36.6771 140.808,34.3437 144.5,32.5 Z"/></g>
<g><path style="opacity:0.476" fill="#3d9da9" d="M 134.5,39.5 C 209.167,40.8333 283.833,40.8333 358.5,39.5C 360.909,40.7007 362.909,42.3674 364.5,44.5C 285.5,45.8333 206.5,45.8333 127.5,44.5C 129.657,42.5879 131.991,40.9213 134.5,39.5 Z"/></g>
<g><path style="opacity:0.499" fill="#3a9aa6" d="M 127.5,44.5 C 206.5,45.8333 285.5,45.8333 364.5,44.5C 369.022,47.5937 373.356,50.927 377.5,54.5C 290.665,54.8327 203.998,54.4994 117.5,53.5C 120.792,50.5095 124.126,47.5095 127.5,44.5 Z"/></g>
<g><path style="opacity:0.524" fill="#3796a3" d="M 117.5,53.5 C 203.998,54.4994 290.665,54.8327 377.5,54.5C 380.526,57.1954 383.526,59.8621 386.5,62.5C 293.429,62.8307 200.429,62.4973 107.5,61.5C 110.52,58.4838 113.854,55.8171 117.5,53.5 Z"/></g>
<g><path style="opacity:0.561" fill="#33919f" d="M 107.5,61.5 C 200.429,62.4973 293.429,62.8307 386.5,62.5C 391.486,66.1549 396.153,70.1549 400.5,74.5C 298.332,74.8328 196.332,74.4995 94.5,73.5C 98.8073,69.5282 103.141,65.5282 107.5,61.5 Z"/></g>
<g><path style="opacity:0.58" fill="#308e9e" d="M 94.5,73.5 C 196.332,74.4995 298.332,74.8328 400.5,74.5C 401.167,74.5 401.5,74.8333 401.5,75.5C 298.665,75.8328 195.999,75.4995 93.5,74.5C 93.5,73.8333 93.8333,73.5 94.5,73.5 Z"/></g>
<g><path style="opacity:0.588" fill="#308f9c" d="M 93.5,74.5 C 195.999,75.4995 298.665,75.8328 401.5,75.5C 402.167,75.5 402.5,75.8333 402.5,76.5C 298.335,77.4995 194.001,77.8328 89.5,77.5C 90.2623,75.7376 91.5956,74.7376 93.5,74.5 Z"/></g>
<g><path style="opacity:0.608" fill="#2d8b9a" d="M 402.5,76.5 C 407.538,79.6868 412.205,83.3535 416.5,87.5C 303.195,87.5038 190.195,87.5038 77.5,87.5C 81.183,83.8197 85.183,80.4864 89.5,77.5C 194.001,77.8328 298.335,77.4995 402.5,76.5 Z"/></g>
<g><path style="opacity:0.64" fill="#2a8797" d="M 77.5,87.5 C 190.195,87.5038 303.195,87.5038 416.5,87.5C 419.871,89.8458 423.204,92.1792 426.5,94.5C 366.837,95.8333 306.837,96.5 246.5,96.5C 186.332,96.5 126.332,96.1667 66.5,95.5C 70.1667,92.8333 73.8333,90.1667 77.5,87.5 Z"/></g>
<g><path style="opacity:0.662" fill="#278595" d="M 426.5,94.5 C 429.047,95.9336 431.381,97.6002 433.5,99.5C 309.237,100.498 184.903,100.831 60.5,100.5C 62.4602,98.8437 64.4602,97.177 66.5,95.5C 126.332,96.1667 186.332,96.5 246.5,96.5C 306.837,96.5 366.837,95.8333 426.5,94.5 Z"/></g>
<g><path style="opacity:0.677" fill="#268293" d="M 433.5,99.5 C 435.996,100.58 438.33,101.914 440.5,103.5C 311.764,104.168 182.931,104.834 54,105.5C 53.6012,105.272 53.4346,104.938 53.5,104.5C 55.6626,102.917 57.9959,101.584 60.5,100.5C 184.903,100.831 309.237,100.498 433.5,99.5 Z"/></g>
<g><path style="opacity:0.7" fill="#237f91" d="M 440.5,103.5 C 448.11,107.473 455.777,111.14 463.5,114.5C 319.833,115.833 176.167,115.833 32.5,114.5C 39.6214,111.439 46.6214,108.106 53.5,104.5C 53.4346,104.938 53.6012,105.272 54,105.5C 182.931,104.834 311.764,104.168 440.5,103.5 Z"/></g>
<g><path style="opacity:0.726" fill="#207b8d" d="M 32.5,114.5 C 176.167,115.833 319.833,115.833 463.5,114.5C 467.499,115.5 471.499,116.5 475.5,117.5C 323.833,118.833 172.167,118.833 20.5,117.5C 24.5837,116.812 28.5837,115.812 32.5,114.5 Z"/></g>
<g><path style="opacity:0.748" fill="#1d798b" d="M 20.5,117.5 C 172.167,118.833 323.833,118.833 475.5,117.5C 483.504,118.784 491.504,119.784 499.5,120.5C 499.5,123.5 499.5,126.5 499.5,129.5C 332.833,129.5 166.167,129.5 -0.5,129.5C -0.5,126.5 -0.5,123.5 -0.5,120.5C 6.54694,119.855 13.5469,118.855 20.5,117.5 Z"/></g>
<g><path style="opacity:0.783" fill="#197488" d="M -0.5,129.5 C 166.167,129.5 332.833,129.5 499.5,129.5C 499.5,132.167 499.5,134.833 499.5,137.5C 332.833,137.5 166.167,137.5 -0.5,137.5C -0.5,134.833 -0.5,132.167 -0.5,129.5 Z"/></g>
<g><path style="opacity:0.807" fill="#177185" d="M -0.5,137.5 C 166.167,137.5 332.833,137.5 499.5,137.5C 499.5,139.833 499.5,142.167 499.5,144.5C 332.833,144.5 166.167,144.5 -0.5,144.5C -0.5,142.167 -0.5,139.833 -0.5,137.5 Z"/></g>
<g><path style="opacity:0.824" fill="#156f84" d="M -0.5,144.5 C 166.167,144.5 332.833,144.5 499.5,144.5C 499.5,145.5 499.5,146.5 499.5,147.5C 332.833,147.5 166.167,147.5 -0.5,147.5C -0.5,146.5 -0.5,145.5 -0.5,144.5 Z"/></g>
<g><path style="opacity:0.84" fill="#136d81" d="M -0.5,147.5 C 166.167,147.5 332.833,147.5 499.5,147.5C 499.5,149.5 499.5,151.5 499.5,153.5C 332.833,153.5 166.167,153.5 -0.5,153.5C -0.5,151.5 -0.5,149.5 -0.5,147.5 Z"/></g>
<g><path style="opacity:0.857" fill="#116b80" d="M -0.5,153.5 C 166.167,153.5 332.833,153.5 499.5,153.5C 499.5,154.833 499.5,156.167 499.5,157.5C 332.833,157.5 166.167,157.5 -0.5,157.5C -0.5,156.167 -0.5,154.833 -0.5,153.5 Z"/></g>
<g><path style="opacity:0.877" fill="#0f687e" d="M -0.5,157.5 C 166.167,157.5 332.833,157.5 499.5,157.5C 499.5,160.167 499.5,162.833 499.5,165.5C 332.833,165.5 166.167,165.5 -0.5,165.5C -0.5,162.833 -0.5,160.167 -0.5,157.5 Z"/></g>
<g><path style="opacity:0.894" fill="#0d667c" d="M -0.5,165.5 C 166.167,165.5 332.833,165.5 499.5,165.5C 499.5,166.167 499.5,166.833 499.5,167.5C 332.833,167.5 166.167,167.5 -0.5,167.5C -0.5,166.833 -0.5,166.167 -0.5,165.5 Z"/></g>
<g><path style="opacity:0.906" fill="#0b647b" d="M -0.5,167.5 C 166.167,167.5 332.833,167.5 499.5,167.5C 499.5,169.167 499.5,170.833 499.5,172.5C 332.833,172.5 166.167,172.5 -0.5,172.5C -0.5,170.833 -0.5,169.167 -0.5,167.5 Z"/></g>
<g><path style="opacity:0.93" fill="#096178" d="M -0.5,172.5 C 166.167,172.5 332.833,172.5 499.5,172.5C 499.5,175.5 499.5,178.5 499.5,181.5C 332.833,181.5 166.167,181.5 -0.5,181.5C -0.5,178.5 -0.5,175.5 -0.5,172.5 Z"/></g>
<g><path style="opacity:0.955" fill="#055e76" d="M -0.5,181.5 C 166.167,181.5 332.833,181.5 499.5,181.5C 499.5,183.167 499.5,184.833 499.5,186.5C 332.833,186.5 166.167,186.5 -0.5,186.5C -0.5,184.833 -0.5,183.167 -0.5,181.5 Z"/></g>
<g><path style="opacity:0.981" fill="#035a73" d="M -0.5,186.5 C 166.167,186.5 332.833,186.5 499.5,186.5C 499.5,190.167 499.5,193.833 499.5,197.5C 332.833,197.5 166.167,197.5 -0.5,197.5C -0.5,193.833 -0.5,190.167 -0.5,186.5 Z"/></g>
</svg>
